<?xml version="1.0" encoding="UTF-8" standalone="no"?><!DOCTYPE svg PUBLIC "-//W3C//DTD SVG 1.1//EN" "http://www.w3.org/Graphics/SVG/1.1/DTD/svg11.dtd"><svg width="150px" height="100%" viewBox="0 0 562 96" fill="#fff" version="1.1" xmlns="http://www.w3.org/2000/svg" xmlns:xlink="http://www.w3.org/1999/xlink" xml:space="preserve" xmlns:serif="http://www.serif.com/" style="fill-rule:evenodd;clip-rule:evenodd;stroke-linejoin:round;stroke-miterlimit:1.41421;"><g><path fill="#fff" d="M39.032,76.946c2.979,0 5.868,-0.479 8.672,-1.445c2.804,-0.966 5.3,-2.564 7.493,-4.795c2.188,-2.236 3.941,-5.146 5.257,-8.741c1.312,-3.59 1.971,-7.971 1.971,-13.143c0,-4.732 -0.462,-9.002 -1.381,-12.81c-0.919,-3.813 -2.432,-7.074 -4.535,-9.792c-2.103,-2.715 -4.886,-4.796 -8.343,-6.241c-3.463,-1.449 -7.733,-2.171 -12.815,-2.171l-14.715,0l0,59.138l18.396,0Zm1.444,-76.483c6.048,0 11.673,0.962 16.888,2.89c5.21,1.927 9.724,4.821 13.536,8.672c3.813,3.86 6.788,8.677 8.938,14.455c2.145,5.783 3.218,12.575 3.218,20.371c0,6.835 -0.876,13.144 -2.628,18.926c-1.753,5.779 -4.403,10.776 -7.951,14.982c-3.547,4.205 -7.975,7.51 -13.271,9.92c-5.304,2.411 -11.545,3.612 -18.73,3.612l-40.476,0l0,-93.828l40.476,0Zm47.572,0l18.662,0l0,15.374l-18.662,0l0,-15.374Zm18.662,93.828l-18.662,0l0,-67.943l18.662,0l0,67.943Zm4.467,-67.939l21.29,0l11.959,17.738l11.826,-17.738l20.636,0l-22.341,31.8l25.098,36.139l-21.29,0l-14.19,-21.418l-14.195,21.418l-20.892,0l24.44,-35.741l-22.341,-32.198Zm81.085,41.986c0.526,2.586 1.424,4.907 2.693,6.967c1.27,2.06 2.958,3.701 5.061,4.928c2.103,1.226 4.732,1.838 7.882,1.838c3.154,0 5.804,-0.612 7.954,-1.838c2.146,-1.227 3.851,-2.868 5.125,-4.928c1.269,-2.06 2.167,-4.381 2.693,-6.967c0.526,-2.582 0.786,-5.232 0.786,-7.95c0,-2.714 -0.26,-5.39 -0.786,-8.019c-0.526,-2.624 -1.424,-4.945 -2.693,-6.962c-1.274,-2.013 -2.979,-3.659 -5.125,-4.928c-2.15,-1.27 -4.8,-1.907 -7.954,-1.907c-3.15,0 -5.779,0.637 -7.882,1.907c-2.103,1.269 -3.791,2.915 -5.061,4.928c-1.269,2.017 -2.167,4.338 -2.693,6.962c-0.525,2.629 -0.79,5.305 -0.79,8.019c0,2.718 0.265,5.368 0.79,7.95Zm-16.955,-22.735c1.663,-4.424 4.031,-8.189 7.1,-11.301c3.064,-3.107 6.744,-5.518 11.035,-7.227c4.292,-1.71 9.113,-2.565 14.456,-2.565c5.343,0 10.185,0.855 14.524,2.565c4.338,1.709 8.035,4.12 11.104,7.227c3.065,3.112 5.432,6.877 7.095,11.301c1.663,4.424 2.496,9.352 2.496,14.785c0,5.432 -0.833,10.339 -2.496,14.72c-1.663,4.381 -4.03,8.125 -7.095,11.233c-3.069,3.111 -6.766,5.501 -11.104,7.163c-4.339,1.663 -9.181,2.496 -14.524,2.496c-5.343,0 -10.164,-0.833 -14.456,-2.496c-4.291,-1.662 -7.971,-4.052 -11.035,-7.163c-3.069,-3.108 -5.437,-6.852 -7.1,-11.233c-1.663,-4.381 -2.496,-9.288 -2.496,-14.72c0,-5.433 0.833,-10.361 2.496,-14.785Zm89.758,-19.251l0,9.459l0.394,0c2.363,-3.941 5.432,-6.809 9.198,-8.604c3.765,-1.795 7.625,-2.697 11.566,-2.697c4.992,0 9.087,0.679 12.288,2.039c3.197,1.359 5.715,3.24 7.557,5.65c1.838,2.411 3.129,5.343 3.877,8.805c0.744,3.462 1.115,7.292 1.115,11.498l0,41.789l-18.661,0l0,-38.37c0,-5.608 -0.876,-9.792 -2.628,-12.553c-1.753,-2.757 -4.864,-4.138 -9.331,-4.138c-5.082,0 -8.762,1.509 -11.041,4.535c-2.278,3.022 -3.415,7.993 -3.415,14.913l0,35.613l-18.661,0l0,-67.939l17.742,0Zm95.799,12.087c3.679,0 6.702,-0.871 9.069,-2.628c2.364,-1.748 3.548,-4.599 3.548,-8.54c0,-2.188 -0.394,-3.988 -1.184,-5.39c-0.787,-1.397 -1.838,-2.496 -3.154,-3.282c-1.313,-0.791 -2.825,-1.338 -4.531,-1.646c-1.709,-0.303 -3.484,-0.457 -5.326,-0.457l-19.315,0l0,21.943l20.893,0Zm2.628,-37.976c4.471,0 8.544,0.393 12.224,1.18c3.681,0.791 6.83,2.086 9.459,3.877c2.629,1.799 4.667,4.189 6.112,7.163c1.445,2.979 2.167,6.659 2.167,11.041c0,4.731 -1.073,8.672 -3.218,11.826c-2.146,3.155 -5.322,5.741 -9.528,7.754c5.783,1.667 10.096,4.577 12.948,8.74c2.841,4.159 4.269,9.177 4.269,15.046c0,4.731 -0.919,8.826 -2.761,12.288c-1.838,3.462 -4.317,6.288 -7.424,8.476c-3.112,2.192 -6.66,3.813 -10.643,4.864c-3.988,1.052 -8.083,1.573 -12.288,1.573l-45.47,0l0,-93.828l44.153,0Zm-1.445,77.795c2.014,0 3.942,-0.196 5.783,-0.59c1.838,-0.393 3.458,-1.051 4.865,-1.97c1.397,-0.919 2.512,-2.167 3.35,-3.744c0.829,-1.578 1.248,-3.595 1.248,-6.048c0,-4.817 -1.359,-8.254 -4.073,-10.314c-2.719,-2.06 -6.309,-3.09 -10.779,-3.09l-22.47,0l0,25.756l22.076,0Zm45.076,-41.921c1.923,-2.89 4.381,-5.211 7.361,-6.963c2.974,-1.752 6.325,-3 10.052,-3.744c3.723,-0.744 7.467,-1.12 11.237,-1.12c3.416,0 6.873,0.243 10.383,0.722c3.5,0.483 6.702,1.428 9.59,2.826c2.89,1.406 5.258,3.351 7.096,5.851c1.842,2.496 2.761,5.804 2.761,9.921l0,35.352c0,3.064 0.176,6.001 0.526,8.804c0.35,2.804 0.961,4.907 1.838,6.305l-18.923,0c-0.349,-1.047 -0.636,-2.12 -0.854,-3.219c-0.218,-1.094 -0.372,-2.21 -0.462,-3.351c-2.979,3.069 -6.484,5.215 -10.51,6.442c-4.03,1.226 -8.146,1.837 -12.352,1.837c-3.245,0 -6.266,-0.393 -9.071,-1.184c-2.804,-0.786 -5.257,-2.013 -7.359,-3.675c-2.104,-1.667 -3.745,-3.766 -4.929,-6.309c-1.18,-2.539 -1.773,-5.565 -1.773,-9.07c0,-3.851 0.679,-7.031 2.038,-9.527c1.355,-2.496 3.107,-4.488 5.258,-5.98c2.145,-1.487 4.598,-2.603 7.355,-3.351c2.762,-0.743 5.544,-1.333 8.348,-1.774c2.803,-0.436 5.56,-0.786 8.279,-1.051c2.714,-0.261 5.125,-0.658 7.228,-1.184c2.103,-0.526 3.765,-1.291 4.992,-2.299c1.226,-1.005 1.796,-2.475 1.71,-4.403c0,-2.013 -0.329,-3.611 -0.988,-4.796c-0.654,-1.184 -1.534,-2.103 -2.629,-2.761c-1.093,-0.654 -2.363,-1.094 -3.807,-1.312c-1.445,-0.218 -3.005,-0.329 -4.668,-0.329c-3.68,0 -6.569,0.791 -8.672,2.368c-2.104,1.577 -3.33,4.201 -3.681,7.882l-18.661,0c0.265,-4.377 1.36,-8.015 3.287,-10.908Zm36.861,26.35c-1.184,0.394 -2.453,0.723 -3.808,0.988c-1.359,0.261 -2.783,0.483 -4.274,0.654c-1.488,0.179 -2.98,0.397 -4.467,0.658c-1.402,0.265 -2.782,0.615 -4.142,1.051c-1.359,0.441 -2.539,1.03 -3.548,1.774c-1.008,0.748 -1.816,1.688 -2.431,2.825c-0.612,1.141 -0.919,2.586 -0.919,4.339c0,1.662 0.307,3.068 0.919,4.206c0.615,1.136 1.449,2.034 2.5,2.692c1.052,0.658 2.274,1.116 3.68,1.381c1.398,0.261 2.842,0.393 4.334,0.393c3.68,0 6.527,-0.611 8.544,-1.838c2.013,-1.226 3.501,-2.697 4.467,-4.402c0.961,-1.71 1.556,-3.441 1.774,-5.194c0.217,-1.752 0.329,-3.154 0.329,-4.205l0,-6.963c-0.786,0.701 -1.774,1.248 -2.958,1.641Zm28.449,-36.335l21.29,0l11.959,17.738l11.826,-17.738l20.637,0l-22.341,31.8l25.098,36.139l-21.29,0l-14.191,-21.418l-14.194,21.418l-20.893,0l24.441,-35.741l-22.342,-32.198Zm70.833,-25.889l18.661,0l0,15.374l-18.661,0l0,-15.374Zm18.661,93.828l-18.661,0l0,-67.943l18.661,0l0,67.943Z" style="fill:#fff;fill-rule:nonzero;"/></g></svg>