<?xml version="1.0" encoding="UTF-8" standalone="no"?>

<svg xmlns:svg="http://www.w3.org/2000/svg" xmlns="http://www.w3.org/2000/svg"
	xmlns:sodipodi="http://sodipodi.sourceforge.net/DTD/sodipodi-0.dtd"
	xmlns:inkscape="http://www.inkscape.org/namespaces/inkscape" version="1.1" id="圖層_1" x="0px" y="0px"
	viewBox="0 0 305.38703 95.29007" xml:space="preserve" sodipodi:docname="MediaCorp 1999.svg"
	inkscape:version="0.92.3 (2405546, 2018-03-11)" width="150px" height="95.29007">
	<defs id="defs29" />
	<sodipodi:namedview pagecolor="#ffffff" bordercolor="#666666" borderopacity="1" objecttolerance="10"
		gridtolerance="10" guidetolerance="10" inkscape:pageopacity="0" inkscape:pageshadow="2"
		inkscape:window-width="1366" inkscape:window-height="713" id="namedview27" showgrid="false"
		inkscape:snap-smooth-nodes="true" inkscape:snap-center="false" inkscape:snap-text-baseline="true"
		inkscape:snap-grids="false" inkscape:zoom="1" inkscape:cx="87.775571" inkscape:cy="29.736649"
		inkscape:window-x="0" inkscape:window-y="0" inkscape:window-maximized="1" inkscape:current-layer="圖層_1"
		inkscape:snap-intersection-paths="false" fit-margin-top="0" fit-margin-left="0" fit-margin-right="0"
		fit-margin-bottom="0" />
	<g aria-label="MediaCorp"
		style="font-style:normal;font-variant:normal;font-weight:normal;font-stretch:normal;font-size:58.71399689px;line-height:1.25;font-family:AntiqueOliveW04-Black;-inkscape-font-specification:AntiqueOliveW04-Black;letter-spacing:0px;word-spacing:0px;fill:#fff;fill-opacity:1;stroke:none;stroke-width:0.99999994"
		id="text877" transform="translate(-22.859737,-450.70993)">
		<path
			d="m 58.208544,494.00003 -4.988396,-26.97748 -9.174062,27.55086 h -1.433447 l -9.432082,-27.55086 -4.873721,26.97748 h -5.447099 l 7.85529,-42 h 2.608874 l 10.005462,30.6471 9.2314,-30.6471 h 2.580204 l 8.514677,42 z"
			style="font-style:normal;font-variant:normal;font-weight:normal;font-stretch:normal;font-family:'Trebuchet MS';-inkscape-font-specification:'Trebuchet MS';letter-spacing:4px;fill:#fff;fill-opacity:1;stroke-width:0.99999994"
			id="path885" inkscape:connector-curvature="0" />
		<path
			d="M 97.64336,479.17819 H 75.510936 q 0,5.38976 2.952901,8.28532 2.608874,2.52287 6.708533,2.52287 4.673038,0 7.797953,-2.72355 l 2.293515,3.92764 q -1.261433,1.26144 -3.870307,2.17884 -3.26826,1.2041 -7.281912,1.2041 -5.791127,0 -9.833448,-3.92765 -4.501024,-4.32901 -4.501024,-11.63959 0,-7.59727 4.6157,-12.1843 4.128328,-4.09966 9.77611,-4.09966 6.565188,0 10.292151,3.6983 3.612287,3.55495 3.612287,9.43208 0,1.80614 -0.430035,3.3256 z M 84.426977,467.30924 q -3.640955,0 -6.106485,2.35086 -2.350853,2.23617 -2.666211,5.56177 h 17.000683 q 0,-3.29693 -2.064164,-5.50443 -2.264846,-2.4082 -6.163823,-2.4082 z"
			style="font-style:normal;font-variant:normal;font-weight:normal;font-stretch:normal;font-family:'Trebuchet MS';-inkscape-font-specification:'Trebuchet MS';letter-spacing:4px;fill:#fff;fill-opacity:1;stroke-width:0.99999994"
			id="path887" inkscape:connector-curvature="0" />
		<path
			d="m 127.24473,493.97136 v -2.26484 q -2.83823,2.83822 -8.25666,2.83822 -5.76246,0 -9.34607,-4.12833 -3.58362,-4.12833 -3.58362,-11.00887 0,-6.90922 4.12833,-11.78294 4.12832,-4.90239 9.83344,-4.90239 4.75905,0 7.22458,2.23618 v -14.24846 h 5.4471 v 43.26143 z m 0,-23.56587 q -2.06417,-3.09625 -5.64778,-3.09625 -4.38635,0 -7.1099,3.26826 -2.69488,3.26826 -2.69488,8.314 0,11.09488 10.09146,11.09488 1.29011,0 3.09625,-0.80273 1.80614,-0.8314 2.26485,-1.74881 z"
			style="font-style:normal;font-variant:normal;font-weight:normal;font-stretch:normal;font-family:'Trebuchet MS';-inkscape-font-specification:'Trebuchet MS';letter-spacing:4px;fill:#fff;fill-opacity:1;stroke-width:0.99999994"
			id="path889" inkscape:connector-curvature="0" />
		<path
			d="m 150.08022,451.68467 q 1.40478,0 2.37952,1.00341 1.00342,0.97475 1.00342,2.35086 0,1.40477 -1.00342,2.40819 -0.97474,0.97474 -2.37952,0.97474 -1.37611,0 -2.37952,-0.97474 -0.97474,-1.00342 -0.97474,-2.40819 0,-1.40478 0.97474,-2.37953 0.97474,-0.97474 2.37952,-0.97474 z m -2.98157,42.31536 v -26.11741 h -4.21433 v -4.58703 h 9.66143 v 30.70444 z"
			style="font-style:normal;font-variant:normal;font-weight:normal;font-stretch:normal;font-family:'Trebuchet MS';-inkscape-font-specification:'Trebuchet MS';letter-spacing:4px;fill:#fff;fill-opacity:1;stroke-width:0.99999994"
			id="path891" inkscape:connector-curvature="0" />
		<path
			d="m 182.54848,490.47375 q -3.26826,4.09966 -10.00546,4.09966 -3.61229,0 -6.2785,-2.60887 -2.63754,-2.63755 -2.63754,-6.53652 0,-4.67304 4.07099,-7.88396 4.09966,-3.23959 10.43549,-3.23959 1.72014,0 3.89898,0.74539 0,-7.45393 -6.6512,-7.45393 -5.10307,0 -7.85529,2.75222 l -2.29351,-4.55836 q 1.54812,-1.26143 4.27167,-2.15017 2.75222,-0.91741 5.24642,-0.91741 6.67986,0 9.6901,3.03891 3.03891,3.03891 3.03891,9.66143 v 11.00888 q 0,4.04232 2.40819,5.38976 v 2.72355 q -3.3256,0 -4.9884,-0.94607 -1.63413,-0.94608 -2.35085,-3.12492 z m -0.51604,-11.55358 q -2.58021,-0.57338 -3.61229,-0.57338 -4.12833,0 -6.7372,2.1215 -2.60887,2.1215 -2.60887,5.01706 0,4.78772 5.64778,4.78772 4.12833,0 7.31058,-3.92765 z"
			style="font-style:normal;font-variant:normal;font-weight:normal;font-stretch:normal;font-family:'Trebuchet MS';-inkscape-font-specification:'Trebuchet MS';letter-spacing:4px;fill:#fff;fill-opacity:1;stroke-width:0.99999994"
			id="path893" inkscape:connector-curvature="0" />
		<path
			d="m 227.28706,453.54815 -1.92082,4.90239 q -2.75222,-2.00683 -8.65802,-2.00683 -5.53311,0 -8.88737,4.75905 -3.3256,4.75904 -3.3256,12.27031 0,7.16723 3.4116,11.63959 3.44028,4.44368 8.85871,4.44368 5.9058,0 9.08805,-4.18566 l 3.15359,4.38635 q -4.9884,4.95972 -12.84369,4.95972 -8.22799,0 -12.95836,-5.93447 -4.73038,-5.93447 -4.73038,-15.65324 0,-9.40341 5.04573,-15.62457 5.04574,-6.22117 13.04437,-6.22117 6.85188,0 10.72219,2.26485 z"
			style="font-style:normal;font-variant:normal;font-weight:normal;font-stretch:normal;font-family:'Trebuchet MS';-inkscape-font-specification:'Trebuchet MS';letter-spacing:4px;fill:#fff;fill-opacity:1;stroke-width:0.99999994"
			id="path895" inkscape:connector-curvature="0" />
		<path
			d="m 237.13551,478.57614 q 0,-7.1099 3.81297,-11.46758 3.84164,-4.38635 10.09147,-4.38635 6.59386,0 10.23481,4.21434 3.64096,4.18566 3.64096,11.63959 0,7.42526 -3.72696,11.7256 -3.72697,4.27167 -10.14881,4.27167 -6.56519,0 -10.23481,-4.32901 -3.66963,-4.32901 -3.66963,-11.66826 z m 5.73379,0 q 0,11.55358 8.17065,11.55358 3.81297,0 5.96314,-3.09624 2.17884,-3.09625 2.17884,-8.45734 0,-11.41024 -8.14198,-11.41024 -3.72696,0 -5.96314,3.03891 -2.20751,3.03891 -2.20751,8.37133 z"
			style="font-style:normal;font-variant:normal;font-weight:normal;font-stretch:normal;font-family:'Trebuchet MS';-inkscape-font-specification:'Trebuchet MS';letter-spacing:4px;fill:#fff;fill-opacity:1;stroke-width:0.99999994"
			id="path897" inkscape:connector-curvature="0" />
		<path
			d="m 291.36351,468.54201 q -1.77748,-1.23277 -3.58362,-1.23277 -2.89557,0 -5.07441,2.66622 -2.15017,2.66621 -2.15017,6.42184 v 17.60273 h -5.4471 v -30.70444 h 5.4471 v 4.90239 q 2.98157,-5.47577 8.85871,-5.47577 1.46211,0 4.21433,0.51604 z"
			style="font-style:normal;font-variant:normal;font-weight:normal;font-stretch:normal;font-family:'Trebuchet MS';-inkscape-font-specification:'Trebuchet MS';letter-spacing:4px;fill:#fff;fill-opacity:1;stroke-width:0.99999994"
			id="path899" inkscape:connector-curvature="0" />
		<path
			d="m 306.94574,492.30856 v 13.73243 h -5.44709 v -42.7454 h 5.44709 v 2.52287 q 3.09625,-3.09625 7.4826,-3.09625 6.53652,0 10.17747,4.07099 3.64096,4.07099 3.64096,11.92628 0,6.99523 -3.66962,11.43891 -3.66963,4.41502 -10.60751,4.41502 -1.94949,0 -4.18567,-0.68806 -2.20751,-0.68805 -2.83823,-1.57679 z m 0,-22.39044 v 17.88942 q 0.51605,0.77406 2.17884,1.49078 1.6628,0.68806 3.23959,0.68806 10.14881,0 10.14881,-11.46758 0,-5.81979 -2.40819,-8.51468 -2.40819,-2.69488 -7.71195,-2.69488 -1.14675,0 -2.80955,0.80273 -1.6628,0.80273 -2.63755,1.80615 z"
			style="font-style:normal;font-variant:normal;font-weight:normal;font-stretch:normal;font-family:'Trebuchet MS';-inkscape-font-specification:'Trebuchet MS';letter-spacing:4px;fill:#fff;fill-opacity:1;stroke-width:0.99999994"
			id="path901" inkscape:connector-curvature="0" />
	</g>
	<rect
		style="opacity:1;fill:#000;fill-opacity:1;stroke:none;stroke-width:4;stroke-linecap:square;stroke-linejoin:miter;stroke-miterlimit:4;stroke-dasharray:none;stroke-opacity:1;paint-order:markers fill stroke"
		id="rect879" width="305.38699" height="28" x="3.8543214e-05" y="67.29007" />
	<g aria-label="Media Corporation of Singapore"
		style="font-style:normal;font-variant:normal;font-weight:normal;font-stretch:normal;font-size:18.21764946px;line-height:1.25;font-family:AntiqueOliveW04-Black;-inkscape-font-specification:AntiqueOliveW04-Black;letter-spacing:0px;word-spacing:0px;fill:#000;fill-opacity:1;stroke:none;stroke-width:1"
		id="text883" transform="translate(-22.859737,-450.70993)">
		<path
			d="m 40.52121,537 -1.547789,-8.37051 -2.846508,8.54842 H 35.682147 L 32.755581,528.62949 31.243374,537 H 29.55326 l 2.437322,-13.03167 h 0.809475 l 3.104473,9.50912 2.864298,-9.50912 h 0.800581 L 42.211324,537 Z"
			style="font-style:normal;font-variant:normal;font-weight:normal;font-stretch:normal;font-family:'Trebuchet MS';-inkscape-font-specification:'Trebuchet MS';letter-spacing:1.24111104px;fill:#fff;fill-opacity:1;stroke-width:1"
			id="path904" inkscape:connector-curvature="0" />
		<path
			d="m 52.756957,532.40111 h -6.8672 q 0,1.67232 0.91622,2.57075 0.809475,0.78279 2.081508,0.78279 1.44994,0 2.419532,-0.84505 l 0.711627,1.21866 q -0.391395,0.39139 -1.200871,0.67604 -1.014068,0.37361 -2.259415,0.37361 -1.796858,0 -3.051101,-1.21866 -1.396567,-1.3432 -1.396567,-3.61151 0,-2.35727 1.432149,-3.78052 1.280928,-1.27203 3.03331,-1.27203 2.037032,0 3.193425,1.1475 1.120813,1.10302 1.120813,2.92656 0,0.56041 -0.13343,1.03186 z m -4.10075,-3.68267 q -1.129708,0 -1.894707,0.72942 -0.729418,0.69384 -0.827266,1.72569 h 5.274934 q 0,-1.02296 -0.640464,-1.7079 -0.702732,-0.74721 -1.912497,-0.74721 z"
			style="font-style:normal;font-variant:normal;font-weight:normal;font-stretch:normal;font-family:'Trebuchet MS';-inkscape-font-specification:'Trebuchet MS';letter-spacing:1.24111104px;fill:#ffffff;fill-opacity:1;stroke-width:1"
			id="path906" inkscape:connector-curvature="0" />
		<path
			d="m 61.941604,536.9911 v -0.70273 q -0.880638,0.88064 -2.561857,0.88064 -1.787963,0 -2.89988,-1.28093 -1.111917,-1.28093 -1.111917,-3.41581 0,-2.14377 1.280929,-3.65598 1.280928,-1.5211 3.0511,-1.5211 1.476626,0 2.241625,0.69383 v -4.42098 h 1.690114 v 13.42306 z m 0,-7.31196 q -0.640464,-0.9607 -1.752381,-0.9607 -1.360987,0 -2.206044,1.01407 -0.836161,1.01407 -0.836161,2.57965 0,3.44249 3.131158,3.44249 0.40029,0 0.960696,-0.24907 0.560407,-0.25796 0.702732,-0.54261 z"
			style="font-style:normal;font-variant:normal;font-weight:normal;font-stretch:normal;font-family:'Trebuchet MS';-inkscape-font-specification:'Trebuchet MS';letter-spacing:1.24111104px;fill:#fff;fill-opacity:1;stroke-width:1"
			id="path908" inkscape:connector-curvature="0" />
		<path
			d="m 69.02695,523.87048 q 0.435872,0 0.738313,0.31134 0.311337,0.30244 0.311337,0.72942 0,0.43587 -0.311337,0.74721 -0.302441,0.30244 -0.738313,0.30244 -0.426976,0 -0.738313,-0.30244 -0.302441,-0.31134 -0.302441,-0.74721 0,-0.43587 0.302441,-0.73832 0.302442,-0.30244 0.738313,-0.30244 z M 68.101835,537 v -8.10365 h -1.307614 v -1.42326 h 2.997728 V 537 Z"
			style="font-style:normal;font-variant:normal;font-weight:normal;font-stretch:normal;font-family:'Trebuchet MS';-inkscape-font-specification:'Trebuchet MS';letter-spacing:1.24111104px;fill:#ffffff;fill-opacity:1;stroke-width:1"
			id="path910" inkscape:connector-curvature="0" />
		<path
			d="m 79.101132,535.90587 q -1.014068,1.27204 -3.104472,1.27204 -1.120812,0 -1.948079,-0.80948 -0.818371,-0.81837 -0.818371,-2.02814 0,-1.44994 1.263138,-2.44621 1.272033,-1.00518 3.237903,-1.00518 0.53372,0 1.209765,0.23128 0,-2.31279 -2.063718,-2.31279 -1.58337,0 -2.437322,0.85396 l -0.711627,-1.41436 q 0.480348,-0.3914 1.325405,-0.66715 0.853953,-0.28465 1.627847,-0.28465 2.072613,0 3.006624,0.9429 0.942905,0.94291 0.942905,2.99773 v 3.41581 q 0,1.25424 0.747209,1.67232 v 0.84506 q -1.031859,0 -1.547789,-0.29354 -0.507034,-0.29355 -0.729418,-0.9696 z m -0.160116,-3.58482 q -0.80058,-0.1779 -1.120812,-0.1779 -1.280929,0 -2.090404,0.65825 -0.809476,0.65826 -0.809476,1.55669 0,1.48552 1.752382,1.48552 1.280928,0 2.26831,-1.21866 z"
			style="font-style:normal;font-variant:normal;font-weight:normal;font-stretch:normal;font-family:'Trebuchet MS';-inkscape-font-specification:'Trebuchet MS';letter-spacing:1.24111104px;fill:#ffffff;fill-opacity:1;stroke-width:1"
			id="path912" inkscape:connector-curvature="0" />
		<path
			d="m 99.703154,524.44868 -0.595987,1.5211 q -0.853953,-0.62267 -2.686392,-0.62267 -1.7168,0 -2.757554,1.47662 -1.031859,1.47663 -1.031859,3.80721 0,2.22383 1.058545,3.61151 1.06744,1.37877 2.748659,1.37877 1.832439,0 2.819821,-1.29872 l 0.978483,1.36099 q -1.547784,1.53889 -3.985106,1.53889 -2.552962,0 -4.020693,-1.84133 -1.46773,-1.84134 -1.46773,-4.85686 0,-2.91767 1.565579,-4.84795 1.565579,-1.93029 4.047378,-1.93029 2.125986,0 3.326856,0.70273 z"
			style="font-style:normal;font-variant:normal;font-weight:normal;font-stretch:normal;font-family:'Trebuchet MS';-inkscape-font-specification:'Trebuchet MS';letter-spacing:1.24111104px;fill:#ffffff;fill-opacity:1;stroke-width:1"
			id="path914" inkscape:connector-curvature="0" />
		<path
			d="m 102.75892,532.21431 q 0,-2.20604 1.18308,-3.55814 1.19197,-1.36098 3.13115,-1.36098 2.04593,0 3.17564,1.30761 1.12971,1.29872 1.12971,3.61151 0,2.30389 -1.1564,3.63819 -1.15639,1.32541 -3.14895,1.32541 -2.03703,0 -3.17563,-1.3432 -1.1386,-1.34319 -1.1386,-3.6204 z m 1.77906,0 q 0,3.58482 2.53517,3.58482 1.18308,0 1.85023,-0.9607 0.67605,-0.96069 0.67605,-2.62412 0,-3.54035 -2.52628,-3.54035 -1.15639,0 -1.85023,0.94291 -0.68494,0.94291 -0.68494,2.59744 z"
			style="font-style:normal;font-variant:normal;font-weight:normal;font-stretch:normal;font-family:'Trebuchet MS';-inkscape-font-specification:'Trebuchet MS';letter-spacing:1.24111104px;fill:#ffffff;fill-opacity:1;stroke-width:1"
			id="path916" inkscape:connector-curvature="0" />
		<path
			d="m 119.58465,529.10094 q -0.55151,-0.3825 -1.11191,-0.3825 -0.89843,0 -1.57448,0.82727 -0.66715,0.82726 -0.66715,1.99255 V 537 H 114.541 v -9.52691 h 1.69011 v 1.52111 q 0.92512,-1.69901 2.74866,-1.69901 0.45366,0 1.30762,0.16011 z"
			style="font-style:normal;font-variant:normal;font-weight:normal;font-stretch:normal;font-family:'Trebuchet MS';-inkscape-font-specification:'Trebuchet MS';letter-spacing:1.24111104px;fill:#ffffff;fill-opacity:1;stroke-width:1"
			id="path918" inkscape:connector-curvature="0" />
		<path
			d="m 124.41948,536.47518 v 4.26086 h -1.69011 v -13.26295 h 1.69011 v 0.78279 q 0.9607,-0.96069 2.32168,-0.96069 2.02814,0 3.15785,1.26314 1.12971,1.26313 1.12971,3.70046 0,2.17046 -1.13861,3.54923 -1.1386,1.36989 -3.29127,1.36989 -0.60488,0 -1.29872,-0.21349 -0.68494,-0.21349 -0.88064,-0.48924 z m 0,-6.94726 v 5.55069 q 0.16012,0.24017 0.67605,0.46255 0.51593,0.21349 1.00517,0.21349 3.14895,0 3.14895,-3.55813 0,-1.80576 -0.74721,-2.64192 -0.74721,-0.83616 -2.39284,-0.83616 -0.35582,0 -0.87175,0.24907 -0.51593,0.24907 -0.81837,0.56041 z"
			style="font-style:normal;font-variant:normal;font-weight:normal;font-stretch:normal;font-family:'Trebuchet MS';-inkscape-font-specification:'Trebuchet MS';letter-spacing:1.24111104px;fill:#ffffff;fill-opacity:1;stroke-width:1"
			id="path920" inkscape:connector-curvature="0" />
		<path
			d="m 133.48849,532.21431 q 0,-2.20604 1.18308,-3.55814 1.19198,-1.36098 3.13116,-1.36098 2.04593,0 3.17564,1.30761 1.1297,1.29872 1.1297,3.61151 0,2.30389 -1.15639,3.63819 -1.15639,1.32541 -3.14895,1.32541 -2.03703,0 -3.17563,-1.3432 -1.13861,-1.34319 -1.13861,-3.6204 z m 1.77907,0 q 0,3.58482 2.53517,3.58482 1.18308,0 1.85023,-0.9607 0.67605,-0.96069 0.67605,-2.62412 0,-3.54035 -2.52628,-3.54035 -1.15639,0 -1.85023,0.94291 -0.68494,0.94291 -0.68494,2.59744 z"
			style="font-style:normal;font-variant:normal;font-weight:normal;font-stretch:normal;font-family:'Trebuchet MS';-inkscape-font-specification:'Trebuchet MS';letter-spacing:1.24111104px;fill:#ffffff;fill-opacity:1;stroke-width:1"
			id="path922" inkscape:connector-curvature="0" />
		<path
			d="m 150.31423,529.10094 q -0.55151,-0.3825 -1.11192,-0.3825 -0.89843,0 -1.57447,0.82727 -0.66715,0.82726 -0.66715,1.99255 V 537 h -1.69012 v -9.52691 h 1.69012 v 1.52111 q 0.92511,-1.69901 2.74866,-1.69901 0.45366,0 1.30761,0.16011 z"
			style="font-style:normal;font-variant:normal;font-weight:normal;font-stretch:normal;font-family:'Trebuchet MS';-inkscape-font-specification:'Trebuchet MS';letter-spacing:1.24111104px;fill:#ffffff;fill-opacity:1;stroke-width:1"
			id="path924" inkscape:connector-curvature="0" />
		<path
			d="m 158.84062,535.90587 q -1.01407,1.27204 -3.10447,1.27204 -1.12081,0 -1.94808,-0.80948 -0.81837,-0.81837 -0.81837,-2.02814 0,-1.44994 1.26314,-2.44621 1.27203,-1.00518 3.2379,-1.00518 0.53372,0 1.20977,0.23128 0,-2.31279 -2.06372,-2.31279 -1.58337,0 -2.43732,0.85396 l -0.71163,-1.41436 q 0.48035,-0.3914 1.3254,-0.66715 0.85396,-0.28465 1.62785,-0.28465 2.07261,0 3.00663,0.9429 0.9429,0.94291 0.9429,2.99773 v 3.41581 q 0,1.25424 0.74721,1.67232 v 0.84506 q -1.03186,0 -1.54779,-0.29354 -0.50703,-0.29355 -0.72942,-0.9696 z m -0.16011,-3.58482 q -0.80058,-0.1779 -1.12082,-0.1779 -1.28092,0 -2.0904,0.65825 -0.80948,0.65826 -0.80948,1.55669 0,1.48552 1.75239,1.48552 1.28092,0 2.26831,-1.21866 z"
			style="font-style:normal;font-variant:normal;font-weight:normal;font-stretch:normal;font-family:'Trebuchet MS';-inkscape-font-specification:'Trebuchet MS';letter-spacing:1.24111104px;fill:#ffffff;fill-opacity:1;stroke-width:1"
			id="path926" inkscape:connector-curvature="0" />
		<path
			d="m 164.87633,528.80739 h -1.10302 v -1.3343 h 1.10302 v -1.99255 l 1.69011,-0.64936 v 2.64191 h 2.61523 v 1.3343 h -2.61523 v 4.73232 q 0,1.20087 0.40029,1.70791 0.40919,0.50703 1.30762,0.50703 0.64936,0 1.34319,-0.32912 l 0.24907,1.48552 q -1.04965,0.26686 -2.30389,0.26686 -1.12971,0 -1.9125,-0.83616 -0.77389,-0.84506 -0.77389,-2.12599 z"
			style="font-style:normal;font-variant:normal;font-weight:normal;font-stretch:normal;font-family:'Trebuchet MS';-inkscape-font-specification:'Trebuchet MS';letter-spacing:1.24111104px;fill:#ffffff;fill-opacity:1;stroke-width:1"
			id="path928" inkscape:connector-curvature="0" />
		<path
			d="m 174.47904,523.87048 q 0.43587,0 0.73831,0.31134 0.31134,0.30244 0.31134,0.72942 0,0.43587 -0.31134,0.74721 -0.30244,0.30244 -0.73831,0.30244 -0.42697,0 -0.73831,-0.30244 -0.30244,-0.31134 -0.30244,-0.74721 0,-0.43587 0.30244,-0.73832 0.30244,-0.30244 0.73831,-0.30244 z M 173.55393,537 v -8.10365 h -1.30762 v -1.42326 h 2.99773 V 537 Z"
			style="font-style:normal;font-variant:normal;font-weight:normal;font-stretch:normal;font-family:'Trebuchet MS';-inkscape-font-specification:'Trebuchet MS';letter-spacing:1.24111104px;fill:#ffffff;fill-opacity:1;stroke-width:1"
			id="path930" inkscape:connector-curvature="0" />
		<path
			d="m 178.54887,532.21431 q 0,-2.20604 1.18308,-3.55814 1.19198,-1.36098 3.13116,-1.36098 2.04593,0 3.17563,1.30761 1.12971,1.29872 1.12971,3.61151 0,2.30389 -1.15639,3.63819 -1.15639,1.32541 -3.14895,1.32541 -2.03703,0 -3.17564,-1.3432 -1.1386,-1.34319 -1.1386,-3.6204 z m 1.77907,0 q 0,3.58482 2.53517,3.58482 1.18308,0 1.85023,-0.9607 0.67605,-0.96069 0.67605,-2.62412 0,-3.54035 -2.52628,-3.54035 -1.15639,0 -1.85023,0.94291 -0.68494,0.94291 -0.68494,2.59744 z"
			style="font-style:normal;font-variant:normal;font-weight:normal;font-stretch:normal;font-family:'Trebuchet MS';-inkscape-font-specification:'Trebuchet MS';letter-spacing:1.24111104px;fill:#ffffff;fill-opacity:1;stroke-width:1"
			id="path932" inkscape:connector-curvature="0" />
		<path
			d="m 196.05956,537 v -5.54179 q 0,-1.52111 -0.46256,-2.12599 -0.45366,-0.61378 -1.53,-0.61378 -0.57819,0 -1.20976,0.34692 -0.63157,0.34692 -0.9696,0.85395 V 537 h -1.69011 v -9.52691 h 1.15639 l 0.53372,1.22756 q 0.83617,-1.40546 2.73087,-1.40546 3.13116,0 3.13116,3.8072 V 537 Z"
			style="font-style:normal;font-variant:normal;font-weight:normal;font-stretch:normal;font-family:'Trebuchet MS';-inkscape-font-specification:'Trebuchet MS';letter-spacing:1.24111104px;fill:#ffffff;fill-opacity:1;stroke-width:1"
			id="path934" inkscape:connector-curvature="0" />
		<path
			d="m 207.49939,532.21431 q 0,-2.20604 1.18308,-3.55814 1.19197,-1.36098 3.13116,-1.36098 2.04592,0 3.17563,1.30761 1.12971,1.29872 1.12971,3.61151 0,2.30389 -1.1564,3.63819 -1.15639,1.32541 -3.14894,1.32541 -2.03704,0 -3.17564,-1.3432 -1.1386,-1.34319 -1.1386,-3.6204 z m 1.77906,0 q 0,3.58482 2.53518,3.58482 1.18308,0 1.85023,-0.9607 0.67604,-0.96069 0.67604,-2.62412 0,-3.54035 -2.52627,-3.54035 -1.1564,0 -1.85023,0.94291 -0.68495,0.94291 -0.68495,2.59744 z"
			style="font-style:normal;font-variant:normal;font-weight:normal;font-stretch:normal;font-family:'Trebuchet MS';-inkscape-font-specification:'Trebuchet MS';letter-spacing:1.24111104px;fill:#ffffff;fill-opacity:1;stroke-width:1"
			id="path936" inkscape:connector-curvature="0" />
		<path
			d="m 224.29843,525.08025 q -0.51593,-0.17791 -0.9607,-0.17791 -0.77389,0 -1.28092,0.58709 -0.49814,0.5871 -0.49814,1.48553 0,0.24017 0.0445,0.49813 h 1.93919 v 1.42326 h -1.93919 V 537 h -1.69011 v -8.10365 h -1.38767 v -1.42326 h 1.38767 q 0,-1.82354 0.89843,-2.86429 0.89843,-1.04076 2.37505,-1.04076 0.73832,0 1.58337,0.26686 z"
			style="font-style:normal;font-variant:normal;font-weight:normal;font-stretch:normal;font-family:'Trebuchet MS';-inkscape-font-specification:'Trebuchet MS';letter-spacing:1.24111104px;fill:#ffffff;fill-opacity:1;stroke-width:1"
			id="path938" inkscape:connector-curvature="0" />
		<path
			d="m 233.381,536.40401 0.64936,-1.63674 q 0.49814,0.36471 1.23645,0.61378 0.74721,0.24017 1.3343,0.24017 1.04076,0 1.67232,-0.5693 0.63157,-0.5693 0.63157,-1.44994 0,-0.65825 -0.35581,-1.21866 -0.34692,-0.5693 -1.76128,-1.23645 l -1.04965,-0.48925 q -1.3343,-0.62267 -1.86802,-1.47662 -0.52482,-0.85395 -0.52482,-2.05482 0,-1.45884 1.03186,-2.41954 1.03186,-0.96069 2.65081,-0.96069 2.16156,0 3.00662,0.70273 l -0.52482,1.54779 q -0.35582,-0.25797 -1.08523,-0.49814 -0.72942,-0.24017 -1.3521,-0.24017 -0.90732,0 -1.43215,0.51593 -0.51592,0.51592 -0.51592,1.3254 0,0.49814 0.1868,0.90732 0.1868,0.40919 0.51593,0.68495 0.33802,0.27575 1.36988,0.77389 l 1.06744,0.50703 q 1.3343,0.63157 1.86802,1.51221 0.54262,0.87174 0.54262,2.22384 0,1.46773 -1.18308,2.49069 -1.17419,1.02296 -3.14895,1.02296 -1.73459,0 -2.96215,-0.81837 z"
			style="font-style:normal;font-variant:normal;font-weight:normal;font-stretch:normal;font-family:'Trebuchet MS';-inkscape-font-specification:'Trebuchet MS';letter-spacing:1.24111104px;fill:#ffffff;fill-opacity:1;stroke-width:1"
			id="path940" inkscape:connector-curvature="0" />
		<path
			d="m 245.57227,523.87048 q 0.43587,0 0.73832,0.31134 0.31133,0.30244 0.31133,0.72942 0,0.43587 -0.31133,0.74721 -0.30245,0.30244 -0.73832,0.30244 -0.42697,0 -0.73831,-0.30244 -0.30244,-0.31134 -0.30244,-0.74721 0,-0.43587 0.30244,-0.73832 0.30244,-0.30244 0.73831,-0.30244 z M 244.64716,537 v -8.10365 h -1.30762 v -1.42326 h 2.99773 V 537 Z"
			style="font-style:normal;font-variant:normal;font-weight:normal;font-stretch:normal;font-family:'Trebuchet MS';-inkscape-font-specification:'Trebuchet MS';letter-spacing:1.24111104px;fill:#ffffff;fill-opacity:1;stroke-width:1"
			id="path942" inkscape:connector-curvature="0" />
		<path
			d="m 256.1268,537 v -5.54179 q 0,-1.52111 -0.46255,-2.12599 -0.45367,-0.61378 -1.53,-0.61378 -0.5782,0 -1.20977,0.34692 -0.63157,0.34692 -0.96959,0.85395 V 537 h -1.69011 v -9.52691 h 1.15639 l 0.53372,1.22756 q 0.83616,-1.40546 2.73087,-1.40546 3.13116,0 3.13116,3.8072 V 537 Z"
			style="font-style:normal;font-variant:normal;font-weight:normal;font-stretch:normal;font-family:'Trebuchet MS';-inkscape-font-specification:'Trebuchet MS';letter-spacing:1.24111104px;fill:#fff;fill-opacity:1;stroke-width:1"
			id="path944" inkscape:connector-curvature="0" />
		<path
			d="m 261.12175,539.60633 0.91622,-1.35209 q 1.47662,0.98738 2.72197,0.98738 1.1475,0 1.80575,-0.40029 0.66715,-0.39139 0.66715,-0.97848 0,-1.1564 -1.67232,-1.1564 -0.28465,0 -1.03186,0.14233 -0.74721,0.14232 -1.16529,0.14232 -2.02814,0 -2.02814,-1.52999 0,-0.47146 0.47146,-0.85396 0.48035,-0.3825 1.18308,-0.55151 -2.01035,-0.9429 -2.01035,-3.27348 0,-1.49442 1.04075,-2.49069 1.04076,-0.99628 2.57076,-0.99628 1.40546,0 2.19715,0.57819 l 0.84505,-1.01406 1.10302,1.04075 -1.01406,0.765 q 0.64936,0.84506 0.64936,2.20604 0,1.44105 -0.89843,2.41953 -0.89843,0.97849 -2.35727,1.12082 l -1.39657,0.14232 q -0.24907,0.0267 -0.66715,0.1957 -0.41808,0.16012 -0.41808,0.42698 0,0.3647 0.87175,0.3647 0.3825,0 1.19197,-0.13343 0.80948,-0.14232 1.20087,-0.14232 1.40546,0 2.18825,0.67604 0.79169,0.66716 0.79169,1.85913 0,1.31651 -1.18308,2.12599 -1.17418,0.80947 -2.97994,0.80947 -0.92511,0 -1.94808,-0.32913 -1.02296,-0.32912 -1.64563,-0.80058 z m 3.58482,-10.95016 q -0.88064,0 -1.44105,0.62268 -0.55151,0.62267 -0.55151,1.51221 0,0.99627 0.53372,1.65453 0.54262,0.64936 1.45884,0.64936 0.89843,0 1.40546,-0.63157 0.50703,-0.64047 0.50703,-1.67232 0,-0.88954 -0.55151,-1.51221 -0.54261,-0.62268 -1.36098,-0.62268 z"
			style="font-style:normal;font-variant:normal;font-weight:normal;font-stretch:normal;font-family:'Trebuchet MS';-inkscape-font-specification:'Trebuchet MS';letter-spacing:1.24111104px;fill:#ffffff;fill-opacity:1;stroke-width:1"
			id="path946" inkscape:connector-curvature="0" />
		<path
			d="m 277.23586,535.90587 q -1.01407,1.27204 -3.10448,1.27204 -1.12081,0 -1.94808,-0.80948 -0.81837,-0.81837 -0.81837,-2.02814 0,-1.44994 1.26314,-2.44621 1.27203,-1.00518 3.2379,-1.00518 0.53372,0 1.20977,0.23128 0,-2.31279 -2.06372,-2.31279 -1.58337,0 -2.43732,0.85396 l -0.71163,-1.41436 q 0.48035,-0.3914 1.32541,-0.66715 0.85395,-0.28465 1.62784,-0.28465 2.07262,0 3.00663,0.9429 0.9429,0.94291 0.9429,2.99773 v 3.41581 q 0,1.25424 0.74721,1.67232 v 0.84506 q -1.03186,0 -1.54779,-0.29354 -0.50703,-0.29355 -0.72941,-0.9696 z m -0.16012,-3.58482 q -0.80058,-0.1779 -1.12081,-0.1779 -1.28093,0 -2.09041,0.65825 -0.80947,0.65826 -0.80947,1.55669 0,1.48552 1.75238,1.48552 1.28093,0 2.26831,-1.21866 z"
			style="font-style:normal;font-variant:normal;font-weight:normal;font-stretch:normal;font-family:'Trebuchet MS';-inkscape-font-specification:'Trebuchet MS';letter-spacing:1.24111104px;fill:#ffffff;fill-opacity:1;stroke-width:1"
			id="path948" inkscape:connector-curvature="0" />
		<path
			d="m 284.35679,536.47518 v 4.26086 h -1.69011 v -13.26295 h 1.69011 v 0.78279 q 0.9607,-0.96069 2.32168,-0.96069 2.02814,0 3.15785,1.26314 1.12971,1.26313 1.12971,3.70046 0,2.17046 -1.13861,3.54923 -1.1386,1.36989 -3.29127,1.36989 -0.60488,0 -1.29872,-0.21349 -0.68494,-0.21349 -0.88064,-0.48924 z m 0,-6.94726 v 5.55069 q 0.16012,0.24017 0.67605,0.46255 0.51593,0.21349 1.00517,0.21349 3.14895,0 3.14895,-3.55813 0,-1.80576 -0.74721,-2.64192 -0.74721,-0.83616 -2.39284,-0.83616 -0.35582,0 -0.87175,0.24907 -0.51593,0.24907 -0.81837,0.56041 z"
			style="font-style:normal;font-variant:normal;font-weight:normal;font-stretch:normal;font-family:'Trebuchet MS';-inkscape-font-specification:'Trebuchet MS';letter-spacing:1.24111104px;fill:#ffffff;fill-opacity:1;stroke-width:1"
			id="path950" inkscape:connector-curvature="0" />
		<path
			d="m 293.42578,532.21431 q 0,-2.20604 1.18308,-3.55814 1.19197,-1.36098 3.13116,-1.36098 2.04592,0 3.17563,1.30761 1.12971,1.29872 1.12971,3.61151 0,2.30389 -1.15639,3.63819 -1.1564,1.32541 -3.14895,1.32541 -2.03704,0 -3.17564,-1.3432 -1.1386,-1.34319 -1.1386,-3.6204 z m 1.77907,0 q 0,3.58482 2.53517,3.58482 1.18308,0 1.85023,-0.9607 0.67604,-0.96069 0.67604,-2.62412 0,-3.54035 -2.52627,-3.54035 -1.1564,0 -1.85023,0.94291 -0.68494,0.94291 -0.68494,2.59744 z"
			style="font-style:normal;font-variant:normal;font-weight:normal;font-stretch:normal;font-family:'Trebuchet MS';-inkscape-font-specification:'Trebuchet MS';letter-spacing:1.24111104px;fill:#ffffff;fill-opacity:1;stroke-width:1"
			id="path952" inkscape:connector-curvature="0" />
		<path
			d="m 310.25154,529.10094 q -0.55151,-0.3825 -1.11192,-0.3825 -0.89843,0 -1.57447,0.82727 -0.66715,0.82726 -0.66715,1.99255 V 537 h -1.69012 v -9.52691 h 1.69012 v 1.52111 q 0.92511,-1.69901 2.74866,-1.69901 0.45366,0 1.30761,0.16011 z"
			style="font-style:normal;font-variant:normal;font-weight:normal;font-stretch:normal;font-family:'Trebuchet MS';-inkscape-font-specification:'Trebuchet MS';letter-spacing:1.24111104px;fill:#ffffff;fill-opacity:1;stroke-width:1"
			id="path954" inkscape:connector-curvature="0" />
		<path
			d="m 321.41985,532.40111 h -6.8672 q 0,1.67232 0.91622,2.57075 0.80948,0.78279 2.08151,0.78279 1.44994,0 2.41953,-0.84505 l 0.71163,1.21866 q -0.39139,0.39139 -1.20087,0.67604 -1.01407,0.37361 -2.25941,0.37361 -1.79686,0 -3.0511,-1.21866 -1.39657,-1.3432 -1.39657,-3.61151 0,-2.35727 1.43215,-3.78052 1.28093,-1.27203 3.03331,-1.27203 2.03703,0 3.19342,1.1475 1.12081,1.10302 1.12081,2.92656 0,0.56041 -0.13343,1.03186 z m -4.10075,-3.68267 q -1.1297,0 -1.8947,0.72942 -0.72942,0.69384 -0.82727,1.72569 h 5.27494 q 0,-1.02296 -0.64047,-1.7079 -0.70273,-0.74721 -1.9125,-0.74721 z"
			style="font-style:normal;font-variant:normal;font-weight:normal;font-stretch:normal;font-family:'Trebuchet MS';-inkscape-font-specification:'Trebuchet MS';letter-spacing:1.24111104px;fill:#fff;fill-opacity:1;stroke-width:1"
			id="path956" inkscape:connector-curvature="0" />
	</g>
</svg>