<?xml version="1.0" encoding="utf-8"?>
<svg version="1.1" width="150px" fill="#fff" id="katman_1" xmlns="http://www.w3.org/2000/svg" xmlns:xlink="http://www.w3.org/1999/xlink" x="0px"
	y="0px" viewBox="0 0 381.8 131.6" style="enable-background:new 0 0 381.8 131.6;" xml:space="preserve">
	<g>
		<path class="st0" d="M0,4.6h35.9v2.7l-2.2,2c-5.8,6.2-9.3,14.7-9.3,24.1s3.6,17.9,9.3,24.1l2.2,2v6.7h0v56.8c0,4.8-3.9,8.7-8.7,8.7
		H8.7c-4.8,0-8.7-3.9-8.7-8.7V44.1l0,0V4.6L0,4.6z" />
		<path class="st1"
			d="M28.4,33.1C28.4,14.8,42.1,0,59,0s30.6,14.8,30.6,33.1S75.9,66.2,59,66.2S28.4,51.4,28.4,33.1L28.4,33.1z" />
		<path class="st0"
			d="M93.1,4.6h36.4v61.6h0v56.8c0,4.8-3.9,8.7-8.8,8.7h-18.7c-4.9,0-8.8-3.9-8.8-8.7V44.1l0,0V4.6L93.1,4.6z" />
		<path class="st0" d="M137.8,4.1h37.9V62v1.3l0,0V4.1l0,0v51.2l23.7-51.2h45.9l-33,59.3h0.4l28.5,60.3c1.7,3.7-0.9,8-5,8h-26
		c-6.1,0-11.6-3.7-13.9-9.3l-18-44.3l-2.6-10.3v9.7v45.4c0,4.9-3.9,8.9-8.9,8.9h-20.2c-4.9,0-8.9-3.9-8.9-8.9V77.4V62L137.8,4.1
		L137.8,4.1L137.8,4.1L137.8,4.1z" />
		<path class="st1" d="M323.8,20.7h5.8v0.7l1.7-0.7c12.8,0,23.2,20.7,23.2,46.3s-10.4,46.3-23.2,46.3l-1.7-0.7v0.7h-5.8V20.7
		L323.8,20.7z M359.6,20.4l3.5,2.4c11.5,11.5,18.7,27.5,18.7,45.1c0,17.6-7.1,33.6-18.7,45.1l-5.4,3.7l7.8-22.7
		c1.9-8.7,2.9-18.2,2.9-28.2c0-10-1-19.5-2.9-28.2L359.6,20.4z M278.3,19.2v97.4L273,113c-11.5-11.5-18.7-27.5-18.7-45.1
		c0-17.6,7.1-33.6,18.7-45.1L278.3,19.2z M311.3,4.8V131l-6.1-0.6c-4.2-0.8-8.2-2.1-12-3.7l-1.4-0.9V76.1h14.5V55.5h-14.5V10.1
		l1.4-0.9c3.8-1.6,7.8-2.9,12-3.7L311.3,4.8z" />
	</g>
</svg>